# xmcd
#
# Track frame offsets:
#	150
#	17455
#	34399
#	47146
#	59260
#	68691
#	84132
#	100443
#	114206
#	123686
#	135000
#	148415
#	165392
#	188062
#	203130
#	221766
#	240214
#
# Disc length: 3362
#
# Revision: 1
# Processed by: cddbd v1.5.2PL0 Copyright (c) Steve Scherf et al.
# Submitted via: kJams Pro 1.0b35
#
DISCID=e30d2011
DTITLE=Unknown Artist - All Star Karaoke Gold 238 (Karaoke)
DYEAR=1975
DGENRE=Country
TTITLE0=CW McCall - Convoy
TTITLE1=Cal Smith - Country Bumpkin
TTITLE2=Patsy Cline - Crazy
TTITLE3=Ray Price - Crazy Arms
TTITLE4=Roger Miller - Dang Me
TTITLE5=Helen Reddy - Delta Dawn
TTITLE6=Charlie Daniels - The Devil Went Down to Georgia
TTITLE7=Tammy Wynette - D.I.V.O.R.C.E_
TTITLE8=Loretta Lynn - Don't Come Home a Drinkin' (With Lovin' On Your Mind)
TTITLE9=Crystal Gayle - Don't It Make My Brown Eyes Blue
TTITLE10=Johnny Paycheck - Don't Take Her She's All I Got
TTITLE11=Marty Robbins - Don't Worry
TTITLE12=Marty Robbins - El Paso
TTITLE13=Bob Wills - Faded Love
TTITLE14=Hank Williams Jr_ - Family Tradition
TTITLE15=Gene Watson - Farewell Party
TTITLE16=Johnny Cash - Folsom Prison Blues
EXTD=
EXTT0=
EXTT1=
EXTT2=
EXTT3=
EXTT4=
EXTT5=
EXTT6=
EXTT7=
EXTT8=
EXTT9=
EXTT10=
EXTT11=
EXTT12=
EXTT13=
EXTT14=
EXTT15=
EXTT16=
PLAYORDER=
